<mxfile host="app.diagrams.net" agent="Mozilla/5.0 (Windows NT 10.0; Win64; x64) AppleWebKit/537.36 (KHTML, like Gecko) Chrome/133.0.0.0 Safari/537.36" version="26.2.13">
  <diagram id="xxJwMEaVgs1f5eFZBWmb" name="第 1 页">
    <mxGraphModel dx="2255" dy="795" grid="1" gridSize="10" guides="1" tooltips="1" connect="1" arrows="1" fold="1" page="1" pageScale="1" pageWidth="827" pageHeight="1169" background="none" math="0" shadow="0">
      <root>
        <mxCell id="0" />
        <mxCell id="1" parent="0" />
        <mxCell id="y7AXHKciuHZLmRv3We56-24" value="" style="rounded=1;whiteSpace=wrap;html=1;" vertex="1" parent="1">
          <mxGeometry x="-360" y="350" width="503" height="320" as="geometry" />
        </mxCell>
        <mxCell id="y7AXHKciuHZLmRv3We56-1" value="" style="rounded=1;whiteSpace=wrap;html=1;" vertex="1" parent="1">
          <mxGeometry x="-360" y="75" width="500" height="230" as="geometry" />
        </mxCell>
        <mxCell id="y7AXHKciuHZLmRv3We56-2" value="" style="rounded=1;whiteSpace=wrap;html=1;" vertex="1" parent="1">
          <mxGeometry x="280" y="180" width="500" height="480" as="geometry" />
        </mxCell>
        <mxCell id="y7AXHKciuHZLmRv3We56-22" style="edgeStyle=orthogonalEdgeStyle;rounded=0;orthogonalLoop=1;jettySize=auto;html=1;exitX=1;exitY=0.5;exitDx=0;exitDy=0;entryX=0;entryY=0.5;entryDx=0;entryDy=0;" edge="1" parent="1" source="y7AXHKciuHZLmRv3We56-19" target="y7AXHKciuHZLmRv3We56-20">
          <mxGeometry relative="1" as="geometry" />
        </mxCell>
        <mxCell id="y7AXHKciuHZLmRv3We56-23" style="edgeStyle=orthogonalEdgeStyle;rounded=0;orthogonalLoop=1;jettySize=auto;html=1;exitX=1;exitY=0.5;exitDx=0;exitDy=0;entryX=0;entryY=0.5;entryDx=0;entryDy=0;" edge="1" parent="1" source="y7AXHKciuHZLmRv3We56-19" target="y7AXHKciuHZLmRv3We56-21">
          <mxGeometry relative="1" as="geometry" />
        </mxCell>
        <mxCell id="y7AXHKciuHZLmRv3We56-37" style="edgeStyle=orthogonalEdgeStyle;rounded=0;orthogonalLoop=1;jettySize=auto;html=1;exitX=0;exitY=0.5;exitDx=0;exitDy=0;entryX=0;entryY=0.5;entryDx=0;entryDy=0;" edge="1" parent="1" source="y7AXHKciuHZLmRv3We56-19" target="y7AXHKciuHZLmRv3We56-34">
          <mxGeometry relative="1" as="geometry">
            <Array as="points">
              <mxPoint x="-490" y="510" />
              <mxPoint x="-490" y="320" />
            </Array>
          </mxGeometry>
        </mxCell>
        <mxCell id="y7AXHKciuHZLmRv3We56-19" value="ods" style="rounded=1;whiteSpace=wrap;html=1;" vertex="1" parent="1">
          <mxGeometry x="-340" y="480" width="120" height="60" as="geometry" />
        </mxCell>
        <mxCell id="y7AXHKciuHZLmRv3We56-38" style="edgeStyle=orthogonalEdgeStyle;rounded=0;orthogonalLoop=1;jettySize=auto;html=1;exitX=1;exitY=0.5;exitDx=0;exitDy=0;entryX=0;entryY=0.5;entryDx=0;entryDy=0;" edge="1" parent="1" source="y7AXHKciuHZLmRv3We56-20" target="y7AXHKciuHZLmRv3We56-35">
          <mxGeometry relative="1" as="geometry" />
        </mxCell>
        <mxCell id="y7AXHKciuHZLmRv3We56-20" value="dm" style="rounded=1;whiteSpace=wrap;html=1;" vertex="1" parent="1">
          <mxGeometry x="-140" y="430" width="120" height="60" as="geometry" />
        </mxCell>
        <mxCell id="y7AXHKciuHZLmRv3We56-39" style="edgeStyle=orthogonalEdgeStyle;rounded=0;orthogonalLoop=1;jettySize=auto;html=1;exitX=1;exitY=0.5;exitDx=0;exitDy=0;entryX=0.5;entryY=1;entryDx=0;entryDy=0;" edge="1" parent="1" source="y7AXHKciuHZLmRv3We56-21" target="y7AXHKciuHZLmRv3We56-35">
          <mxGeometry relative="1" as="geometry" />
        </mxCell>
        <mxCell id="y7AXHKciuHZLmRv3We56-21" value="dwd" style="rounded=1;whiteSpace=wrap;html=1;" vertex="1" parent="1">
          <mxGeometry x="-140" y="520" width="120" height="60" as="geometry" />
        </mxCell>
        <mxCell id="y7AXHKciuHZLmRv3We56-27" value="应收&lt;br&gt;应付&lt;br&gt;&lt;div&gt;substr(ifnull(ddm.draft_code,0),1,1) not in (&#39;5&#39;,&#39;6&#39;) then &#39;信单/供应链票据&#39;&lt;/div&gt;" style="text;html=1;align=center;verticalAlign=middle;whiteSpace=wrap;rounded=0;" vertex="1" parent="1">
          <mxGeometry x="-290" y="360" width="420" height="90" as="geometry" />
        </mxCell>
        <mxCell id="y7AXHKciuHZLmRv3We56-28" value="应收&lt;br&gt;应付&lt;div&gt;REGEXP_LIKE(dif.draft_code, &#39;[a-zA-Z]&#39;) &amp;gt; 0 then &#39;信单/供应链票据&#39;&lt;/div&gt;" style="text;html=1;align=center;verticalAlign=middle;whiteSpace=wrap;rounded=0;" vertex="1" parent="1">
          <mxGeometry x="-280" y="580" width="400" height="50" as="geometry" />
        </mxCell>
        <mxCell id="y7AXHKciuHZLmRv3We56-30" value="&lt;font style=&quot;font-size: 18px;&quot;&gt;bi&lt;/font&gt;" style="text;html=1;align=center;verticalAlign=middle;whiteSpace=wrap;rounded=0;" vertex="1" parent="1">
          <mxGeometry x="-350" y="370" width="60" height="30" as="geometry" />
        </mxCell>
        <mxCell id="y7AXHKciuHZLmRv3We56-31" value="&lt;font style=&quot;font-size: 18px;&quot;&gt;供金&lt;/font&gt;" style="text;html=1;align=center;verticalAlign=middle;whiteSpace=wrap;rounded=0;" vertex="1" parent="1">
          <mxGeometry x="-350" y="120" width="60" height="30" as="geometry" />
        </mxCell>
        <mxCell id="y7AXHKciuHZLmRv3We56-40" style="edgeStyle=orthogonalEdgeStyle;rounded=0;orthogonalLoop=1;jettySize=auto;html=1;exitX=1;exitY=0.5;exitDx=0;exitDy=0;" edge="1" parent="1" source="y7AXHKciuHZLmRv3We56-32" target="y7AXHKciuHZLmRv3We56-34">
          <mxGeometry relative="1" as="geometry" />
        </mxCell>
        <mxCell id="y7AXHKciuHZLmRv3We56-32" value="开&lt;br&gt;兑&lt;br&gt;转&lt;br&gt;融" style="rounded=1;whiteSpace=wrap;html=1;" vertex="1" parent="1">
          <mxGeometry x="-260" y="150" width="70" height="80" as="geometry" />
        </mxCell>
        <mxCell id="y7AXHKciuHZLmRv3We56-33" value="&lt;font style=&quot;font-size: 18px;&quot;&gt;数据中台&lt;/font&gt;" style="text;html=1;align=center;verticalAlign=middle;whiteSpace=wrap;rounded=0;" vertex="1" parent="1">
          <mxGeometry x="310" y="210" width="80" height="30" as="geometry" />
        </mxCell>
        <mxCell id="y7AXHKciuHZLmRv3We56-34" value="ods" style="rounded=1;whiteSpace=wrap;html=1;" vertex="1" parent="1">
          <mxGeometry x="430" y="290" width="120" height="60" as="geometry" />
        </mxCell>
        <mxCell id="y7AXHKciuHZLmRv3We56-35" value="dm" style="rounded=1;whiteSpace=wrap;html=1;" vertex="1" parent="1">
          <mxGeometry x="430" y="390" width="120" height="60" as="geometry" />
        </mxCell>
      </root>
    </mxGraphModel>
  </diagram>
</mxfile>
